<mxfile host="www.draw.io" modified="2020-02-04T22:43:03.391Z" agent="Mozilla/5.0 (Macintosh; Intel Mac OS X 10_15_2) AppleWebKit/537.36 (KHTML, like Gecko) Chrome/79.0.3945.130 Safari/537.36" etag="cMisBlPlWVEDx82uYqsy" version="12.6.5" type="github">
  <diagram name="Page-1" id="b520641d-4fe3-3701-9064-5fc419738815">
    <mxGraphModel dx="593" dy="304" grid="1" gridSize="10" guides="1" tooltips="1" connect="1" arrows="1" fold="1" page="1" pageScale="1" pageWidth="1100" pageHeight="850" background="#ffffff" math="0" shadow="0">
      <root>
        <mxCell id="0"/>
        <mxCell id="1" parent="0"/>
        <mxCell id="Ue20IWk6Q7UqlA_AOIAC-1" value="Prediction&lt;br&gt;Result" style="shape=parallelogram;perimeter=parallelogramPerimeter;whiteSpace=wrap;html=1;dashed=0;" parent="1" vertex="1">
          <mxGeometry x="610" y="450" width="100" height="50" as="geometry"/>
        </mxCell>
        <mxCell id="gYgJbDMfaeKUd_fR1AI6-5" style="edgeStyle=orthogonalEdgeStyle;rounded=0;orthogonalLoop=1;jettySize=auto;html=1;exitX=0.5;exitY=0.5;exitDx=0;exitDy=15;exitPerimeter=0;entryX=0;entryY=0.5;entryDx=0;entryDy=0;" parent="1" source="Ue20IWk6Q7UqlA_AOIAC-2" target="gYgJbDMfaeKUd_fR1AI6-1" edge="1">
          <mxGeometry relative="1" as="geometry">
            <Array as="points">
              <mxPoint x="60" y="335"/>
            </Array>
          </mxGeometry>
        </mxCell>
        <mxCell id="Ue20IWk6Q7UqlA_AOIAC-2" value="Prediction&lt;br&gt;Request" style="html=1;dashed=0;whitespace=wrap;shape=mxgraph.dfd.start" parent="1" vertex="1">
          <mxGeometry x="20" y="250" width="80" height="30" as="geometry"/>
        </mxCell>
        <mxCell id="Ue20IWk6Q7UqlA_AOIAC-4" value="Dictionary&lt;br&gt;Outlier&lt;br&gt;Classifier" style="shape=ellipse;html=1;dashed=0;whitespace=wrap;perimeter=ellipsePerimeter;" parent="1" vertex="1">
          <mxGeometry x="198" y="300" width="75" height="70" as="geometry"/>
        </mxCell>
        <mxCell id="Ue20IWk6Q7UqlA_AOIAC-6" value="Local&lt;br&gt;Outlier&lt;br&gt;Factor&lt;br&gt;Classifier" style="shape=ellipse;html=1;dashed=0;whitespace=wrap;perimeter=ellipsePerimeter;" parent="1" vertex="1">
          <mxGeometry x="205" y="660" width="75" height="70" as="geometry"/>
        </mxCell>
        <mxCell id="Ue20IWk6Q7UqlA_AOIAC-8" value="&lt;br&gt;Transformers" style="html=1;dashed=0;whitespace=wrap;" parent="1" vertex="1">
          <mxGeometry x="80" y="670" width="80" height="50" as="geometry"/>
        </mxCell>
        <mxCell id="Ue20IWk6Q7UqlA_AOIAC-12" value="Dimension&lt;br&gt;Mismatch&lt;br&gt;Classifier" style="shape=ellipse;html=1;dashed=0;whitespace=wrap;perimeter=ellipsePerimeter;" parent="1" vertex="1">
          <mxGeometry x="198" y="570" width="75" height="70" as="geometry"/>
        </mxCell>
        <mxCell id="Ue20IWk6Q7UqlA_AOIAC-13" value="Dimension&lt;br&gt;Mismatch&lt;br&gt;Classifier" style="shape=ellipse;html=1;dashed=0;whitespace=wrap;perimeter=ellipsePerimeter;" parent="1" vertex="1">
          <mxGeometry x="198" y="480" width="75" height="70" as="geometry"/>
        </mxCell>
        <mxCell id="Ue20IWk6Q7UqlA_AOIAC-14" value="Dimension&lt;br&gt;Mismatch&lt;br&gt;Classifier" style="shape=ellipse;html=1;dashed=0;whitespace=wrap;perimeter=ellipsePerimeter;" parent="1" vertex="1">
          <mxGeometry x="198" y="390" width="75" height="70" as="geometry"/>
        </mxCell>
        <mxCell id="Ue20IWk6Q7UqlA_AOIAC-15" value="&lt;br&gt;Transformers" style="html=1;dashed=0;whitespace=wrap;" parent="1" vertex="1">
          <mxGeometry x="88" y="400" width="82.5" height="50" as="geometry"/>
        </mxCell>
        <mxCell id="Ue20IWk6Q7UqlA_AOIAC-16" value="&lt;br&gt;Transformers" style="html=1;dashed=0;whitespace=wrap;" parent="1" vertex="1">
          <mxGeometry x="88" y="490" width="82.5" height="50" as="geometry"/>
        </mxCell>
        <mxCell id="Ue20IWk6Q7UqlA_AOIAC-17" value="&lt;br&gt;Transformers" style="html=1;dashed=0;whitespace=wrap;" parent="1" vertex="1">
          <mxGeometry x="88" y="580" width="82.5" height="50" as="geometry"/>
        </mxCell>
        <mxCell id="gYgJbDMfaeKUd_fR1AI6-1" value="&lt;br&gt;Transformers" style="html=1;dashed=0;whitespace=wrap;" parent="1" vertex="1">
          <mxGeometry x="90" y="310" width="80" height="50" as="geometry"/>
        </mxCell>
        <mxCell id="gYgJbDMfaeKUd_fR1AI6-15" style="edgeStyle=orthogonalEdgeStyle;rounded=0;orthogonalLoop=1;jettySize=auto;html=1;exitX=1;exitY=0.5;exitDx=0;exitDy=0;entryX=0;entryY=0.5;entryDx=0;entryDy=0;" parent="1" source="gYgJbDMfaeKUd_fR1AI6-2" target="Ue20IWk6Q7UqlA_AOIAC-1" edge="1">
          <mxGeometry relative="1" as="geometry">
            <mxPoint x="600" y="475" as="targetPoint"/>
          </mxGeometry>
        </mxCell>
        <mxCell id="gYgJbDMfaeKUd_fR1AI6-2" value="Model&lt;br&gt;Aggregator" style="shape=ellipse;html=1;dashed=0;whitespace=wrap;perimeter=ellipsePerimeter;" parent="1" vertex="1">
          <mxGeometry x="510" y="440" width="75" height="70" as="geometry"/>
        </mxCell>
        <mxCell id="gYgJbDMfaeKUd_fR1AI6-7" value="Input &lt;br&gt;Records" style="edgeStyle=orthogonalEdgeStyle;rounded=0;orthogonalLoop=1;jettySize=auto;html=1;exitX=0.5;exitY=0.5;exitDx=0;exitDy=15;exitPerimeter=0;entryX=0;entryY=0.5;entryDx=0;entryDy=0;" parent="1" source="Ue20IWk6Q7UqlA_AOIAC-2" target="Ue20IWk6Q7UqlA_AOIAC-8" edge="1">
          <mxGeometry relative="1" as="geometry">
            <mxPoint x="70" y="290" as="sourcePoint"/>
            <mxPoint x="100" y="385" as="targetPoint"/>
            <Array as="points">
              <mxPoint x="60" y="695"/>
            </Array>
          </mxGeometry>
        </mxCell>
        <mxCell id="gYgJbDMfaeKUd_fR1AI6-8" value="" style="endArrow=classic;html=1;exitX=1;exitY=0.5;exitDx=0;exitDy=0;entryX=0;entryY=0.5;entryDx=0;entryDy=0;" parent="1" source="Ue20IWk6Q7UqlA_AOIAC-8" target="Ue20IWk6Q7UqlA_AOIAC-6" edge="1">
          <mxGeometry width="50" height="50" relative="1" as="geometry">
            <mxPoint x="10" y="800" as="sourcePoint"/>
            <mxPoint x="60" y="750" as="targetPoint"/>
          </mxGeometry>
        </mxCell>
        <mxCell id="gYgJbDMfaeKUd_fR1AI6-21" value="Predictions,&amp;nbsp;&lt;br&gt;Scores" style="endArrow=classic;html=1;exitX=1;exitY=0.5;exitDx=0;exitDy=0;entryX=0;entryY=1;entryDx=0;entryDy=0;" parent="1" source="Ue20IWk6Q7UqlA_AOIAC-6" target="gYgJbDMfaeKUd_fR1AI6-2" edge="1">
          <mxGeometry width="50" height="50" relative="1" as="geometry">
            <mxPoint x="447.0250000000001" y="572" as="sourcePoint"/>
            <mxPoint x="840" y="650" as="targetPoint"/>
            <Array as="points">
              <mxPoint x="521" y="695"/>
            </Array>
          </mxGeometry>
        </mxCell>
        <mxCell id="gYgJbDMfaeKUd_fR1AI6-22" value="" style="endArrow=classic;html=1;entryX=0;entryY=0.5;entryDx=0;entryDy=0;" parent="1" target="Ue20IWk6Q7UqlA_AOIAC-13" edge="1">
          <mxGeometry width="50" height="50" relative="1" as="geometry">
            <mxPoint x="170.5" y="514.5" as="sourcePoint"/>
            <mxPoint x="240.5" y="514.5" as="targetPoint"/>
          </mxGeometry>
        </mxCell>
        <mxCell id="gYgJbDMfaeKUd_fR1AI6-24" value="" style="endArrow=classic;html=1;entryX=0;entryY=0.5;entryDx=0;entryDy=0;exitX=1;exitY=0.5;exitDx=0;exitDy=0;" parent="1" source="Ue20IWk6Q7UqlA_AOIAC-17" target="Ue20IWk6Q7UqlA_AOIAC-12" edge="1">
          <mxGeometry width="50" height="50" relative="1" as="geometry">
            <mxPoint x="180.5" y="524.5" as="sourcePoint"/>
            <mxPoint x="208" y="525" as="targetPoint"/>
          </mxGeometry>
        </mxCell>
        <mxCell id="gYgJbDMfaeKUd_fR1AI6-25" value="" style="endArrow=classic;html=1;entryX=0;entryY=0.5;entryDx=0;entryDy=0;exitX=1;exitY=0.5;exitDx=0;exitDy=0;" parent="1" source="Ue20IWk6Q7UqlA_AOIAC-15" target="Ue20IWk6Q7UqlA_AOIAC-14" edge="1">
          <mxGeometry width="50" height="50" relative="1" as="geometry">
            <mxPoint x="180.5" y="615" as="sourcePoint"/>
            <mxPoint x="208" y="615" as="targetPoint"/>
          </mxGeometry>
        </mxCell>
        <mxCell id="gYgJbDMfaeKUd_fR1AI6-27" value="Predictions, Scores, Reasons" style="endArrow=classic;html=1;exitX=1;exitY=0.5;exitDx=0;exitDy=0;entryX=0;entryY=0;entryDx=0;entryDy=0;" parent="1" source="Ue20IWk6Q7UqlA_AOIAC-4" target="gYgJbDMfaeKUd_fR1AI6-2" edge="1">
          <mxGeometry width="50" height="50" relative="1" as="geometry">
            <mxPoint x="20" y="730" as="sourcePoint"/>
            <mxPoint x="70" y="680" as="targetPoint"/>
            <Array as="points">
              <mxPoint x="340" y="335"/>
              <mxPoint x="521" y="335"/>
            </Array>
          </mxGeometry>
        </mxCell>
        <mxCell id="gYgJbDMfaeKUd_fR1AI6-28" value="Reason&lt;br&gt;Aggregator" style="shape=ellipse;html=1;dashed=0;whitespace=wrap;perimeter=ellipsePerimeter;" parent="1" vertex="1">
          <mxGeometry x="333" y="480" width="75" height="70" as="geometry"/>
        </mxCell>
        <mxCell id="gYgJbDMfaeKUd_fR1AI6-29" value="" style="endArrow=classic;html=1;exitX=1;exitY=0.5;exitDx=0;exitDy=0;entryX=0.5;entryY=0;entryDx=0;entryDy=0;" parent="1" source="Ue20IWk6Q7UqlA_AOIAC-14" target="gYgJbDMfaeKUd_fR1AI6-28" edge="1">
          <mxGeometry width="50" height="50" relative="1" as="geometry">
            <mxPoint x="-417" y="770" as="sourcePoint"/>
            <mxPoint x="-367" y="720" as="targetPoint"/>
            <Array as="points">
              <mxPoint x="371" y="425"/>
            </Array>
          </mxGeometry>
        </mxCell>
        <mxCell id="gYgJbDMfaeKUd_fR1AI6-30" value="" style="endArrow=classic;html=1;exitX=1;exitY=0.5;exitDx=0;exitDy=0;entryX=0.5;entryY=1;entryDx=0;entryDy=0;" parent="1" source="Ue20IWk6Q7UqlA_AOIAC-12" target="gYgJbDMfaeKUd_fR1AI6-28" edge="1">
          <mxGeometry width="50" height="50" relative="1" as="geometry">
            <mxPoint x="353" y="690" as="sourcePoint"/>
            <mxPoint x="403" y="640" as="targetPoint"/>
            <Array as="points">
              <mxPoint x="371" y="605"/>
            </Array>
          </mxGeometry>
        </mxCell>
        <mxCell id="gYgJbDMfaeKUd_fR1AI6-31" value="" style="endArrow=classic;html=1;exitX=1;exitY=0.5;exitDx=0;exitDy=0;entryX=0;entryY=0.5;entryDx=0;entryDy=0;" parent="1" source="Ue20IWk6Q7UqlA_AOIAC-13" target="gYgJbDMfaeKUd_fR1AI6-28" edge="1">
          <mxGeometry width="50" height="50" relative="1" as="geometry">
            <mxPoint x="-452" y="770" as="sourcePoint"/>
            <mxPoint x="298" y="515" as="targetPoint"/>
          </mxGeometry>
        </mxCell>
        <mxCell id="gYgJbDMfaeKUd_fR1AI6-33" value="" style="endArrow=classic;html=1;exitX=1;exitY=0.5;exitDx=0;exitDy=0;entryX=0;entryY=1;entryDx=0;entryDy=0;" parent="1" source="gYgJbDMfaeKUd_fR1AI6-28" edge="1" target="gYgJbDMfaeKUd_fR1AI6-2">
          <mxGeometry width="50" height="50" relative="1" as="geometry">
            <mxPoint x="20" y="720" as="sourcePoint"/>
            <mxPoint x="880" y="480" as="targetPoint"/>
          </mxGeometry>
        </mxCell>
        <mxCell id="gYgJbDMfaeKUd_fR1AI6-34" value="Reasons" style="text;html=1;align=center;verticalAlign=middle;resizable=0;points=[];labelBackgroundColor=#ffffff;" parent="gYgJbDMfaeKUd_fR1AI6-33" vertex="1" connectable="0">
          <mxGeometry x="-0.006" y="2" relative="1" as="geometry">
            <mxPoint as="offset"/>
          </mxGeometry>
        </mxCell>
        <mxCell id="V970P4TJnGfR8KZQs7Bi-4" value="" style="endArrow=classic;html=1;entryX=0;entryY=0.5;entryDx=0;entryDy=0;exitX=1;exitY=0.5;exitDx=0;exitDy=0;" edge="1" parent="1">
          <mxGeometry width="50" height="50" relative="1" as="geometry">
            <mxPoint x="170" y="334.83" as="sourcePoint"/>
            <mxPoint x="197.5" y="334.83" as="targetPoint"/>
          </mxGeometry>
        </mxCell>
        <mxCell id="V970P4TJnGfR8KZQs7Bi-6" value="" style="endArrow=classic;html=1;entryX=0;entryY=0.5;entryDx=0;entryDy=0;" edge="1" parent="1" target="Ue20IWk6Q7UqlA_AOIAC-17">
          <mxGeometry width="50" height="50" relative="1" as="geometry">
            <mxPoint x="60" y="605" as="sourcePoint"/>
            <mxPoint x="70" y="750" as="targetPoint"/>
          </mxGeometry>
        </mxCell>
        <mxCell id="V970P4TJnGfR8KZQs7Bi-7" value="" style="endArrow=classic;html=1;entryX=0;entryY=0.5;entryDx=0;entryDy=0;" edge="1" parent="1">
          <mxGeometry width="50" height="50" relative="1" as="geometry">
            <mxPoint x="60" y="530" as="sourcePoint"/>
            <mxPoint x="88" y="530" as="targetPoint"/>
          </mxGeometry>
        </mxCell>
        <mxCell id="V970P4TJnGfR8KZQs7Bi-8" value="" style="endArrow=classic;html=1;entryX=0;entryY=0.5;entryDx=0;entryDy=0;" edge="1" parent="1">
          <mxGeometry width="50" height="50" relative="1" as="geometry">
            <mxPoint x="60" y="424.75" as="sourcePoint"/>
            <mxPoint x="88" y="424.75" as="targetPoint"/>
          </mxGeometry>
        </mxCell>
      </root>
    </mxGraphModel>
  </diagram>
</mxfile>
